<svg xmlns="http://www.w3.org/2000/svg" viewBox="0 0 412 76.3">
  <g id="Layer_2" data-name="Layer 2">
    <g id="Layer_1-2" data-name="Layer 1">
      <g>
        <polygon points="64.41 74.9 40.31 62.5 16.41 75.4 20.71 48.6 1.11 29.8 27.91 25.6 39.71 1.2 52.01 25.4 78.91 29.1 59.61 48.2 64.41 74.9" style="fill: #fbb03b"/>
        <path d="M15.71,76.3l4.5-27.5L0,29.4l27.6-4.3L39.7,0,52.3,24.9,80,28.7,60.2,48.4l5,27.5L40.31,63.1ZM2.21,30.1l19.1,18.3L17,74.4l23.3-12.5L63.81,74l-4.7-26,18.7-18.6-26.2-3.6L39.71,2.3,28.21,26.1Z" style="fill: #fbb03b"/>
      </g>
      <g>
        <polygon points="147.41 74.9 123.31 62.5 99.41 75.4 103.71 48.6 84.11 29.8 110.91 25.6 122.71 1.2 135.01 25.4 161.91 29.1 142.61 48.2 147.41 74.9" style="fill: #fbb03b"/>
        <path d="M98.71,76.3l4.5-27.5L83,29.4l27.6-4.3L122.7,0l12.6,24.9L163,28.7,143.2,48.4l5,27.5L123.31,63.1ZM85.21,30.1l19.1,18.3-4.3,26,23.3-12.5L146.81,74l-4.7-26,18.7-18.6-26.2-3.6L122.71,2.3l-11.5,23.8Z" style="fill: #fbb03b"/>
      </g>
      <g>
        <polygon points="230.41 74.9 206.31 62.5 182.41 75.4 186.71 48.6 167.11 29.8 193.91 25.6 205.71 1.2 218.01 25.4 244.91 29.1 225.61 48.2 230.41 74.9" style="fill: #fbb03b"/>
        <path d="M181.71,76.3l4.5-27.5L166,29.4l27.6-4.3L205.7,0l12.6,24.9L246,28.7,226.2,48.4l5,27.5L206.31,63.1Zm-13.5-46.2,19.1,18.3-4.3,26,23.3-12.5L229.81,74l-4.7-26,18.7-18.6-26.2-3.6L205.71,2.3l-11.5,23.8Z" style="fill: #fbb03b"/>
      </g>
      <g>
        <polygon points="313.41 74.9 289.31 62.5 265.41 75.4 269.71 48.6 250.11 29.8 276.91 25.6 288.71 1.2 301.01 25.4 327.91 29.1 308.61 48.2 313.41 74.9" style="fill: #fbb03b"/>
        <path d="M264.71,76.3l4.5-27.5L249,29.4l27.6-4.3L288.7,0l12.6,24.9L329,28.7,309.2,48.4l5,27.5L289.31,63.1Zm-13.5-46.2,19.1,18.3-4.3,26,23.3-12.5L312.81,74l-4.7-26,18.7-18.6-26.2-3.6L288.71,2.3l-11.5,23.8Z" style="fill: #fbb03b"/>
      </g>
      <g>
        <polygon points="396.41 74.9 372.31 62.5 348.41 75.4 352.71 48.6 333.11 29.8 359.91 25.6 371.71 1.2 384.01 25.4 410.91 29.1 391.61 48.2 396.41 74.9" style="fill: #fbb03b"/>
        <path d="M347.71,76.3l4.5-27.5L332,29.4l27.6-4.3L371.7,0l12.6,24.9L412,28.7,392.2,48.4l5,27.5L372.31,63.1Zm-13.5-46.2,19.1,18.3-4.3,26,23.3-12.5L395.81,74l-4.7-26,18.7-18.6-26.2-3.6L371.71,2.3l-11.5,23.8Z" style="fill: #fbb03b"/>
      </g>
    </g>
  </g>
</svg>
